<?xml version="1.0" encoding="UTF-8"?>
<svg xmlns="http://www.w3.org/2000/svg" width="20" height="20" viewBox="0 0 20 20"><head xmlns=""><style id="dark-reader-style">@media screen {

/* Leading rule */
html {
  -webkit-filter: invert(100%) hue-rotate(180deg) !important;
  filter: invert(100%) hue-rotate(180deg) !important;
}

/* Reverse rule */
img,
video,
:not(object):not(body)&gt;embed,
object,
svg image,
[style*="background:url"],
[style*="background-image:url"],
[style*="background: url"],
[style*="background-image: url"],
[background],
twitterwidget {
  -webkit-filter: invert(100%) hue-rotate(180deg) !important;
  filter: invert(100%) hue-rotate(180deg) !important;
}
[style*="background:url"] *,
[style*="background-image:url"] *,
[style*="background: url"] *,
[style*="background-image: url"] *,
input,
[background] *,
img[src^="https://s0.wp.com/latex.php"],
twitterwidget .NaturalImage-image {
  -webkit-filter: none !important;
  filter: none !important;
}
.compatibility-with-darkreader-below-4-3-3 {
  background: white !important;
}

/* Text contrast */
html {
  text-shadow: 0 0 0 !important;
}

/* Full screen */
:-webkit-full-screen, :-webkit-full-screen * {
  -webkit-filter: none !important;
  filter: none !important;
}
:-moz-full-screen, :-moz-full-screen * {
  -webkit-filter: none !important;
  filter: none !important;
}
:fullscreen, :fullscreen * {
  -webkit-filter: none !important;
  filter: none !important;
}

/* Page background */
html {
  background: rgb(0,0,0) !important;
}

/* Custom rules */
.compatibility-with-darkreader-below-4-3-3 {
    background: white !important;
}

}</style></head><head xmlns=""/><g fill="#fff"><title>help</title><path d="M10.06 1C13 1 15 2.89 15 5.53a4.59 4.59 0 0 1-2.29 4.08c-1.42.92-1.82 1.53-1.82 2.71V13H8.38v-.81a3.84 3.84 0 0 1 2-3.84c1.34-.9 1.79-1.53 1.79-2.71a2.1 2.1 0 0 0-2.08-2.14h-.17a2.3 2.3 0 0 0-2.38 2.22v.17H5A4.71 4.71 0 0 1 9.51 1a5 5 0 0 1 .55 0zM8 17a1.89 1.89 0 0 1 1.77-2H10a1.87 1.87 0 0 1 2 1.73 1.22 1.22 0 0 1 0 .27 1.87 1.87 0 0 1-1.73 2 1.22 1.22 0 0 1-.27 0 1.88 1.88 0 0 1-2-1.75A1 1 0 0 1 8 17z"/></g></svg>